# xmcd
#
# Track frame offsets:
#	150
#	12449
#	35113
#	71537
#	104296
#	130765
#	174449
#	205753
#
# Disc length: 3076 seconds
#
# Revision: 0
# Processed by: cddbd v1.4PL0 Copyright (c) Steve Scherf et al.
# Submitted via: audiograbber 1.81.02
#
DISCID=690c0208
DTITLE=Allman Brothers - 1996-06-22 - Darien Lake, NY - Disc 1
DYEAR=1900
DGENRE=
TTITLE0=abb1996-06 - 22d1t01
TTITLE1=abb1996-06 - 22d1t02
TTITLE2=abb1996-06 - 22d1t03
TTITLE3=abb1996-06 - 22d1t04
TTITLE4=abb1996-06 - 22d1t05
TTITLE5=abb1996-06 - 22d1t06
TTITLE6=abb1996-06 - 22d1t07
TTITLE7=abb1996-06 - 22d1t08
EXTD=
EXTT0=
EXTT1=
EXTT2=
EXTT3=
EXTT4=
EXTT5=
EXTT6=
EXTT7=
PLAYORDER=
